<?xml version="1.0" encoding="UTF-8" standalone="no"?>
<!DOCTYPE svg PUBLIC "-//W3C//DTD SVG 20010904//EN" "http://www.w3.org/TR/2001/REC-SVG-20010904/DTD/svg10.dtd">
<svg version="1.0" xmlns="http://www.w3.org/2000/svg" width="1397.000000pt" height="285.000000pt" viewBox="0 0 1397.000000 285.000000" preserveAspectRatio="xMidYMid meet">
<g transform="translate(0.000000,285.000000) scale(0.100000,-0.100000)" fill="#553c92" stroke="none">
<path d="M13657 2825 c-355 -71 -880 -323 -1153 -553 l-72 -60 -49 28 c-100 57 -152 133 -162 235 l-6 60 -35 -70 c-31 -63 -35 -79 -35 -150 0 -69 4 -86 27 -127 52 -87 146 -146 290 -183 288 -73 670 -20 1004 139 265 127 451 306 490 471 6 26 1 22 -44 -31 -65 -78 -196 -177 -321 -242 -96 -50 -276 -122 -316 -126 -11 -1 -25 -5 -31 -9 -6 -3 -57 -16 -115 -29 -142 -31 -464 -33 -577 -4 -40 10 -74 22 -77 26 -3 4 34 35 83 67 388 265 909 473 1186 476 99 1 141 -17 154 -66 l9 -32 22 35 c45 72 40 123 -14 146 -43 18 -166 17 -258 -1z"/>
<path d="M11230 1410 l0 -1410 44 0 c54 0 82 22 69 54 -4 12 -9 628 -10 1370 -1 742 -4 1359 -7 1372 -6 21 -12 24 -51 24 l-45 0 0 -1410z"/>
<path d="M710 2315 c-319 -63 -567 -314 -668 -672 -25 -91 -27 -111 -27 -283 1 -157 4 -197 22 -266 76 -287 230 -498 442 -608 262 -135 598 -112 834 58 176 125 299 310 365 543 25 91 27 111 26 283 0 167 -3 195 -27 282 -51 190 -125 325 -247 447 -121 122 -239 186 -396 217 -92 17 -235 17 -324 -1z m262 -86 c288 -61 437 -358 438 -874 0 -251 -30 -416 -106 -572 -93 -193 -246 -293 -449 -293 -142 0 -251 46 -343 145 -138 148 -202 382 -202 737 0 347 69 587 212 729 112 113 286 162 450 128z"/>
<path d="M9188 2292 l-188 -2 0 -45 c0 -48 8 -56 72 -69 15 -4 36 -18 45 -33 17 -25 18 -78 18 -779 0 -744 0 -753 -21 -780 -13 -18 -36 -31 -65 -38 -44 -11 -44 -11 -47 -59 l-3 -47 258 2 258 3 3 27 c5 41 -11 61 -65 78 -41 13 -50 20 -60 50 -16 47 -18 842 -2 871 6 11 38 38 72 60 178 115 392 103 472 -26 l30 -48 3 -425 c3 -476 5 -462 -68 -482 -44 -12 -63 -37 -58 -78 l3 -27 258 -3 257 -2 0 39 c0 43 -26 71 -65 71 -12 0 -32 12 -46 26 l-24 26 -5 436 c-5 420 -6 439 -26 483 -31 67 -87 124 -155 158 -84 42 -155 54 -279 49 -119 -6 -197 -28 -300 -86 -36 -20 -68 -38 -72 -40 -4 -2 -9 153 -10 345 l-3 348 -187 -3z"/>
<path d="M5465 2194 c-70 -36 -102 -93 -92 -165 11 -84 97 -148 180 -134 54 9 126 78 129 121 4 91 -21 142 -86 173 -51 25 -90 26 -131 5z"/>
<path d="M13850 2017 c-36 -39 -101 -97 -144 -130 -76 -56 -278 -163 -321 -170 -11 -2 -29 -8 -40 -14 -28 -15 -154 -49 -260 -70 -120 -23 -361 -23 -464 0 -98 22 -189 66 -246 118 -62 57 -87 108 -89 181 -1 57 -2 58 -18 38 -31 -38 -58 -128 -58 -193 0 -149 105 -252 315 -308 117 -32 356 -32 513 -1 339 68 644 233 792 430 45 61 95 163 88 182 -2 4 -32 -24 -68 -63z"/>
<path d="M6048 2063 c-60 -7 -68 -27 -68 -173 0 -154 -12 -181 -89 -204 -84 -25 -91 -31 -91 -81 l0 -45 90 0 89 0 3 -467 c3 -429 5 -472 22 -517 26 -68 89 -129 157 -151 105 -36 265 -19 379 40 77 41 75 38 50 83 l-23 41 -40 -21 c-103 -52 -226 -28 -269 54 -23 43 -23 45 -26 491 l-3 448 158 -3 158 -3 -3 67 -4 67 -151 3 -152 3 -3 188 -2 187 -73 -2 c-39 -1 -89 -3 -109 -5z"/>
<path d="M2438 1720 c-58 -15 -151 -65 -212 -115 l-56 -45 0 70 0 70 -162 0 c-200 0 -208 -2 -208 -45 0 -40 22 -65 56 -65 33 0 71 -40 79 -81 3 -19 5 -231 3 -471 l-3 -436 -24 -26 c-14 -14 -34 -26 -46 -26 -39 0 -65 -28 -65 -71 l0 -39 265 0 265 0 0 38 c0 51 -9 61 -60 70 -30 5 -49 15 -64 35 -20 28 -21 40 -24 444 l-3 416 50 48 c28 27 79 63 113 81 56 29 73 32 144 33 72 0 85 -3 123 -28 29 -20 50 -44 67 -80 l24 -52 0 -421 c0 -477 4 -453 -80 -477 -44 -13 -45 -13 -48 -60 l-3 -47 261 0 261 0 -3 42 c-3 45 -20 60 -81 73 -55 11 -57 31 -57 485 l0 411 45 44 c134 130 313 152 411 50 27 -28 45 -58 52 -88 8 -31 12 -176 12 -442 0 -435 -2 -449 -58 -461 -67 -14 -90 -40 -80 -91 3 -17 19 -18 263 -18 l260 0 3 27 c5 42 -13 64 -62 77 -79 20 -76 4 -76 458 0 260 -4 421 -11 455 -37 174 -149 256 -361 266 -159 7 -256 -28 -389 -139 l-46 -39 -27 39 c-31 45 -92 90 -156 116 -52 21 -232 30 -292 15z"/>
<path d="M4523 1715 c-69 -19 -148 -59 -200 -101 -23 -19 -44 -34 -47 -34 -3 0 -6 27 -6 60 l0 60 -157 0 c-203 0 -205 -1 -201 -54 3 -38 6 -42 43 -54 22 -7 49 -22 60 -33 19 -19 20 -35 23 -474 3 -502 1 -518 -55 -531 -55 -13 -73 -31 -73 -74 l0 -40 260 0 260 0 0 33 c0 44 -17 63 -68 77 -79 20 -77 8 -80 482 l-3 417 40 44 c23 25 71 59 109 78 63 32 73 34 170 34 57 0 106 -4 110 -10 4 -5 13 -11 21 -13 33 -7 70 -45 92 -94 l24 -53 0 -417 0 -417 -23 -23 c-12 -12 -41 -27 -64 -33 -35 -8 -44 -15 -51 -42 -19 -64 -25 -63 263 -63 l261 0 -3 48 c-3 46 -4 47 -45 57 -24 6 -53 21 -65 33 l-23 23 -5 447 -5 447 -28 57 c-34 70 -93 121 -174 150 -76 28 -281 35 -360 13z"/>
<path d="M6992 1710 c-103 -27 -186 -75 -263 -150 -199 -197 -247 -526 -114 -795 52 -105 102 -166 188 -229 34 -25 68 -51 75 -56 6 -6 12 -8 12 -5 0 3 13 -1 29 -9 71 -37 175 -58 286 -58 197 -1 325 52 459 186 l79 79 -24 19 c-66 52 -58 54 -138 -22 -44 -42 -99 -83 -139 -102 -64 -31 -72 -33 -182 -33 -110 0 -119 2 -181 32 -174 86 -285 303 -270 526 1 16 30 17 451 17 l450 0 0 68 c-1 259 -161 476 -396 537 -81 21 -231 19 -322 -5z m277 -106 c55 -22 125 -102 147 -167 10 -30 18 -83 18 -127 l1 -75 -310 0 -310 0 3 39 c10 113 79 244 159 299 80 57 197 69 292 31z"/>
<path d="M8321 1714 c-239 -51 -435 -243 -497 -484 -23 -91 -15 -279 16 -370 59 -175 166 -297 332 -381 185 -94 453 -98 627 -9 67 33 161 107 161 125 0 12 -61 65 -75 65 -4 0 -26 -16 -49 -35 -23 -19 -69 -47 -102 -62 -54 -26 -69 -28 -174 -28 -109 0 -119 2 -183 32 -126 60 -223 192 -263 358 -24 100 -22 277 4 376 56 208 167 324 326 336 75 6 134 -9 171 -43 27 -25 27 -27 21 -103 -6 -69 -5 -80 14 -104 86 -109 270 -50 270 86 0 115 -97 202 -267 241 -87 19 -243 20 -332 0z"/>
<path d="M5312 1691 c-8 -5 -12 -23 -10 -47 3 -36 6 -40 43 -52 79 -25 75 3 75 -522 0 -525 4 -496 -76 -524 -37 -12 -39 -15 -42 -59 l-3 -47 249 0 250 0 4 25 c8 39 -13 68 -62 85 -37 13 -47 22 -57 50 -9 25 -12 182 -12 568 l-1 532 -172 0 c-95 0 -179 -4 -186 -9z"/>
<path d="M13845 1540 c-37 -54 -140 -149 -216 -201 -34 -23 -111 -65 -173 -95 -193 -92 -380 -135 -586 -134 -310 2 -487 105 -518 300 l-9 55 -22 -50 c-12 -27 -25 -57 -29 -65 -13 -25 -6 -143 11 -182 39 -91 150 -169 293 -204 97 -24 319 -24 439 0 112 22 256 68 354 112 183 84 383 253 442 375 24 49 52 129 45 129 -2 0 -16 -18 -31 -40z"/>
<path d="M13796 1030 c-27 -47 -139 -153 -213 -202 -205 -137 -438 -210 -673 -211 -293 -1 -477 117 -481 307 l-1 41 -25 -53 c-31 -66 -40 -155 -23 -217 39 -141 226 -235 464 -235 410 0 867 257 961 541 20 59 16 71 -9 29z"/>
<path d="M13731 537 c-25 -41 -142 -154 -201 -194 -166 -113 -390 -183 -585 -183 -116 0 -183 13 -260 49 -106 49 -164 128 -166 226 l-1 50 -26 -55 c-34 -72 -36 -175 -5 -235 122 -232 570 -243 946 -22 90 53 246 204 280 272 23 47 50 125 42 125 -2 0 -13 -15 -24 -33z"/>
</g>
</svg>
